# xmcd
#
# Track frame offsets:
#	150
#	11818
#	23748
#	36044
#	48137
#	59205
#	70434
#	83067
#	96551
#	108469
#	120440
#	132546
#	145693
#	156681
#	169105
#	182438
#	193888
#	203951
#	216010
#	228444
#	242053
#	254718
#	266354
#	280868
#
# Disc length: 3896 seconds
#
# Revision: 0
# Processed by: cddbd v1.5.2PL0 Copyright (c) Steve Scherf et al.
# Submitted via: audiograbber 1.83.01
#
DISCID=6c0f3618
DTITLE=Otis Redding - The Complete Stax/Volt Singles Collection  CD1
DYEAR=2013
DGENRE=Soul
TTITLE0=These Arms Of Mine
TTITLE1=Hey Hey Baby
TTITLE2=That's What My Heart Needs
TTITLE3=Mary's Little Lamb
TTITLE4=Pain In My Heart
TTITLE5=Something Is Worrying Me
TTITLE6=Come To Me
TTITLE7=Don't Leave Me This Way
TTITLE8=Security
TTITLE9=I Want To Thank You
TTITLE10=Chained And Bound
TTITLE11=Your One And Only Man
TTITLE12=That's How Strong My Love Is
TTITLE13=Mr. Pitiful
TTITLE14=I've Been Loving You Too Long (To Stop Now)
TTITLE15=I'm Depending On You
TTITLE16=Respect
TTITLE17=Ole Man Trouble
TTITLE18=I Can't Turn You Loose
TTITLE19=Just One More Day
TTITLE20=Satisfaction
TTITLE21=Any Ole Way
TTITLE22=My Lover's Prayer
TTITLE23=Don't Mess With Cupid
EXTD=
EXTT0=
EXTT1=
EXTT2=
EXTT3=
EXTT4=
EXTT5=
EXTT6=
EXTT7=
EXTT8=
EXTT9=
EXTT10=
EXTT11=
EXTT12=
EXTT13=
EXTT14=
EXTT15=
EXTT16=
EXTT17=
EXTT18=
EXTT19=
EXTT20=
EXTT21=
EXTT22=
EXTT23=
PLAYORDER=
